# xmcd
#
# Track frame offsets:
#	150
#	7353
#	19354
#	31364
#	59860
#	74745
#	86817
#
# Disc length: 1294 seconds
#
# Revision: 1
# Processed by: cddbd v1.5.2PL0 Copyright (c) Steve Scherf et al.
# Submitted via: audiograbber 1.83.01
#
DISCID=6d050c07
DTITLE=Syncopera - This is Blues-Hip/Hop
DYEAR=2011
DGENRE=Blues
TTITLE0=Préambule
TTITLE1=This is Blues Hip-Hop
TTITLE2=L'Art et la Manière
TTITLE3=Blindin' Blues 2011
TTITLE4=L'air du temps funeste
TTITLE5=No remedy original
TTITLE6=But for now
EXTD=
EXTT0=
EXTT1=
EXTT2=
EXTT3=
EXTT4=
EXTT5=
EXTT6=
PLAYORDER=
